# xmcd
#
# Track frame offsets:
#        150
#        16405
#        36715
#        54275
#        70382
#        90740
#        113712
#        137180
#        156882
#        172827
#        189467
#        212134
#
# Disc length: 3073 seconds
#
# Revision: 0
# Processed by: cddbd v1.5.1PL0 Copyright (c) Steve Scherf et al.
# Submitted via: ExactAudioCopy v0.95a5
#
DISCID=a70bff0c
DTITLE=Two - Voyeurs
DYEAR=1998
DGENRE=Industrial
TTITLE0=I Am A Pig
TTITLE1=Stutter Kiss
TTITLE2=Water's Leaking
TTITLE3=My Ceiling's Low
TTITLE4=Leave Me Alone
TTITLE5=If
TTITLE6=Deep In The Ground
TTITLE7=Hey, Sha La La
TTITLE8=Wake Up
TTITLE9=Gimp
TTITLE10=Bed Of Rust
TTITLE11=In My Head
EXTD=
EXTT0=
EXTT1=
EXTT2=
EXTT3=
EXTT4=
EXTT5=
EXTT6=
EXTT7=
EXTT8=
EXTT9=
EXTT10=
EXTT11=
PLAYORDER=
